<svg t="1688992776449" class="icon" viewBox="0 0 1024 1024" version="1.1" xmlns="http://www.w3.org/2000/svg" p-id="2319" width="200" height="200"><path d="M170.71 724.37c-17.38 0-31.82-14.21-31.82-31.59 0-17.61 14.44-31.82 31.82-31.82h82.37c43.32 0 93.86-56.19 145.99-122.99l9.24 12.2c10.4 13.31 20.31 26.62 30.25 39.7-58.67 73.57-118.7 134.5-185.47 134.5h-82.38z m708.76-379.55l-52.36 52.36v0.21l-52.34 52.36c-7.46 7.23-19.41 7.23-27.08 0-4.07-4.07-5.87-9.7-5.43-14.88V363.1h-77.84c-43.32 0-93.63 56.19-145.99 122.97l-9.03-12.17c-10.37-13.31-20.31-26.62-30.69-39.72 59.13-73.55 119.14-134.71 185.7-134.71h77.84v-72.88c0-10.37 8.6-19.18 18.97-19.18 5.18 0 10.37 2.48 13.54 5.64l52.34 52.57 52.36 52.13c7.44 7.67 7.44 19.64 0.46 27.08h-0.45v-0.01z m-40.16-13.54c-19.87-19.41-39.49-39.26-59.13-58.9v117.79c19.64-19.63 39.26-39.04 59.13-58.89z m40.16 374.81h0.46c6.98-7.44 6.98-19.64-0.46-26.85l-52.36-52.35-52.34-52.36c-3.17-3.6-8.36-5.85-13.54-5.85-10.37 0-18.97 8.57-18.97 18.95v73.34h-77.84c-53.03 0-116.64-84.18-180.27-168.12-73.57-96.56-146.68-193.38-231.06-193.38h-82.38c-17.38 0-31.82 14.44-31.82 31.82 0 17.61 14.44 31.82 31.82 31.82h82.37c53.03 0 116.87 84.18 180.51 168.1 73.34 96.58 146.68 193.17 230.83 193.17h77.84v71.74c-0.44 5.43 1.36 10.84 5.43 14.9 7.67 7.44 19.62 7.44 27.08 0l52.34-52.59 52.36-52.34z m-40.16-13.31c-19.87 19.39-39.49 39.03-59.13 59.11V633.65l20.08 20.31 39.05 38.82z" fill="#ffffff" p-id="2320"></path></svg>